<svg xmlns="http://www.w3.org/2000/svg" xmlns:xlink="http://www.w3.org/1999/xlink" xmlns:svgjs="http://svgjs.com/svgjs" version="1.1" width="1602.9000854492188" height="922.5830597052881"><rect width="1602.9000854492188" height="922.5830597052881" fill="#002F2F"></rect><g transform="scale(5) translate(30, 30)"> <defs id="SvgjsDefs1725"></defs><g xmlns:name="main_text" id="SvgjsG1726" rel="mainfill" name="main_text" transform="translate(0.3950079083442688,-143.77339660386426)" fill="#ffffff" style="fill: #ffffff"><path d="M16.81 226.34L16.81 226.93L16.26 226.93Q15.83 226.93 15.53 227.21Q15.23 227.48 15.19 227.87L15.19 237.33Q15.19 237.85 15.22 238.39Q15.26 238.93 15.30 239.36Q15.35 239.86 15.42 240.34L14.92 240.34L3.61 229.63L3.61 238.45Q3.65 238.86 3.95 239.14Q4.25 239.43 4.66 239.43L5.23 239.43L5.23 240.02L0.66 240.02L0.66 239.43L1.23 239.43Q1.64 239.43 1.95 239.14Q2.26 238.86 2.28 238.45L2.28 228.94Q2.28 228.40 2.24 227.86Q2.19 227.32 2.15 226.91Q2.08 226.43 2.01 225.98L2.56 225.98L13.84 236.60L13.84 227.83Q13.80 227.44 13.50 227.16Q13.20 226.89 12.79 226.89L12.22 226.89L12.22 226.30L16.81 226.34ZM31.00 238.22Q31.29 238.86 31.71 239.13Q32.14 239.41 32.53 239.41L32.89 239.41L32.89 240L27.96 240L27.96 239.41L28.32 239.41Q28.57 239.41 28.79 239.22Q29.01 239.04 29.01 238.70Q29.01 238.54 28.94 238.33L27.77 235.50L22.41 235.50L21.24 238.26Q21.15 238.47 21.15 238.70Q21.15 239.04 21.36 239.22Q21.56 239.41 21.81 239.41L22.18 239.41L22.18 240L17.56 240L17.56 239.41L17.93 239.41Q18.32 239.41 18.75 239.13Q19.19 238.86 19.51 238.22L24.12 228.37Q24.35 227.89 24.53 227.46Q24.69 227.07 24.82 226.66Q24.94 226.25 24.97 225.98L25.47 225.98L31.00 238.22M27.34 234.45L25.13 229.06L22.84 234.45L27.34 234.45ZM46.16 236.39L44.79 239.98L33.83 239.98L33.83 239.54L41.96 227.30L35.70 227.30Q35.29 227.32 35.04 227.60Q34.79 227.87 34.79 228.26L34.79 228.79L34.17 228.79L34.17 225.82Q34.35 225.88 34.67 225.96Q34.99 226.04 35.36 226.11Q35.72 226.18 36.11 226.23Q36.50 226.27 36.82 226.27L41.94 226.27Q42.28 226.27 42.70 226.24Q43.12 226.20 43.50 226.15Q43.88 226.09 44.20 226.02Q44.52 225.95 44.65 225.88L44.65 226.43L36.39 238.95L42.14 238.95Q42.87 238.93 43.41 238.73Q43.95 238.54 44.33 238.22Q44.72 237.90 45.01 237.44Q45.29 236.98 45.52 236.46L46.16 236.39ZM60.03 238.22Q60.32 238.86 60.75 239.13Q61.17 239.41 61.56 239.41L61.92 239.41L61.92 240L56.99 240L56.99 239.41L57.35 239.41Q57.61 239.41 57.82 239.22Q58.04 239.04 58.04 238.70Q58.04 238.54 57.97 238.33L56.81 235.50L51.44 235.50L50.27 238.26Q50.18 238.47 50.18 238.70Q50.18 239.04 50.39 239.22Q50.59 239.41 50.84 239.41L51.21 239.41L51.21 240L46.60 240L46.60 239.41L46.96 239.41Q47.35 239.41 47.78 239.13Q48.22 238.86 48.54 238.22L53.15 228.37Q53.38 227.89 53.56 227.46Q53.72 227.07 53.85 226.66Q53.97 226.25 54.00 225.98L54.50 225.98L60.03 238.22M56.37 234.45L54.16 229.06L51.87 234.45L56.37 234.45ZM68.16 226.32Q70.30 226.36 71.58 227.36Q72.86 228.35 72.86 230.11Q72.86 230.80 72.63 231.41Q72.41 232.03 71.98 232.53Q71.56 233.03 70.99 233.39Q70.42 233.74 69.73 233.90Q70.08 234.18 70.44 234.60Q70.81 235.02 71.08 235.41L71.08 235.39Q71.38 235.82 71.70 236.23Q71.97 236.60 72.31 237.01Q72.66 237.42 73.00 237.81Q73.32 238.17 73.62 238.47Q73.91 238.77 74.23 238.98Q74.55 239.20 74.93 239.31Q75.31 239.43 75.79 239.43L75.79 240.02L74.92 240.02Q73.96 240.02 73.27 239.83Q72.59 239.63 72.09 239.34Q71.58 239.04 71.25 238.69Q70.92 238.33 70.65 238.01Q70.53 237.90 70.19 237.38Q69.85 236.87 69.46 236.35L68.45 234.93Q68.04 234.40 67.52 233.97Q66.99 233.54 65.76 233.54L65.76 238.38Q65.78 238.79 66.08 239.09Q66.38 239.38 66.83 239.38L67.34 239.38L67.34 239.98L62.40 239.98L62.40 239.38L62.90 239.38Q63.36 239.38 63.66 239.10Q63.96 238.81 63.98 238.40L63.98 227.87Q63.96 227.46 63.66 227.19Q63.36 226.91 62.90 226.91L62.42 226.91L62.42 226.30L68.16 226.32M67.11 232.94Q67.36 232.94 67.71 232.93Q68.07 232.92 68.52 232.89Q68.98 232.85 69.39 232.68Q69.80 232.51 70.14 232.15Q70.49 231.80 70.72 231.14Q70.88 230.70 70.88 230.13Q70.88 230.00 70.85 229.95Q70.83 228.79 70.10 228.12Q69.37 227.46 68.11 227.39Q67.66 227.37 67.22 227.37L65.76 227.37L65.76 232.94L67.11 232.94ZM84.67 225.98Q86.27 225.98 87.66 226.50Q89.06 227.03 90.11 227.97Q91.16 228.92 91.76 230.24Q92.37 231.55 92.37 233.15Q92.37 234.75 91.76 236.06Q91.16 237.37 90.11 238.32Q89.06 239.27 87.66 239.79Q86.27 240.32 84.67 240.32Q83.07 240.32 81.67 239.79Q80.26 239.27 79.21 238.32Q78.16 237.37 77.56 236.06Q76.95 234.75 76.95 233.15Q76.95 231.55 77.56 230.24Q78.16 228.92 79.21 227.97Q80.26 227.03 81.67 226.50Q83.07 225.98 84.67 225.98M84.67 239.27Q85.86 239.27 86.89 238.82Q87.92 238.38 88.68 237.58Q89.45 236.78 89.88 235.65Q90.31 234.52 90.31 233.15Q90.31 231.78 89.88 230.65Q89.45 229.52 88.68 228.72Q87.92 227.92 86.89 227.47Q85.86 227.03 84.67 227.03Q83.48 227.03 82.44 227.47Q81.41 227.92 80.64 228.72Q79.88 229.52 79.44 230.65Q79.01 231.78 79.01 233.15Q79.01 234.52 79.44 235.65Q79.88 236.78 80.64 237.58Q81.41 238.38 82.44 238.82Q83.48 239.27 84.67 239.27ZM108.79 226.30L108.79 226.89L108.43 226.89Q108.04 226.89 107.62 227.17Q107.19 227.46 106.87 228.08L102.26 237.92Q102.03 238.42 101.85 238.86Q101.69 239.25 101.56 239.66Q101.44 240.07 101.41 240.32L100.91 240.32L95.36 228.08Q95.04 227.46 94.63 227.17Q94.22 226.89 93.83 226.89L93.47 226.89L93.47 226.30L98.40 226.30L98.40 226.89L98.03 226.89Q97.78 226.89 97.58 227.07Q97.37 227.25 97.37 227.62Q97.37 227.80 97.44 228.01L97.42 227.99L101.23 237.26L105.11 228.03Q105.21 227.85 105.21 227.62Q105.21 227.28 105.00 227.08Q104.79 226.89 104.54 226.89L104.18 226.89L104.18 226.30L108.79 226.30ZM129.87 234.02L129.62 237.33Q128.71 238.72 127.02 239.52Q125.33 240.32 123.32 240.32Q121.58 240.32 120.19 239.82Q118.80 239.31 117.81 238.39Q116.83 237.46 116.31 236.14Q115.78 234.82 115.78 233.15Q115.78 231.48 116.31 230.14Q116.83 228.81 117.81 227.88Q118.80 226.96 120.19 226.47Q121.58 225.98 123.32 225.98Q124.74 225.98 126.16 226.36Q127.59 226.75 128.69 227.41L129.23 230.84L128.66 230.84Q128.14 228.79 126.72 227.91Q125.31 227.03 123.30 227.03Q122.02 227.03 121.00 227.45Q119.98 227.87 119.26 228.66Q118.55 229.45 118.16 230.59Q117.77 231.73 117.77 233.15Q117.77 234.52 118.17 235.64Q118.57 236.76 119.30 237.54Q120.03 238.33 121.05 238.78Q122.06 239.22 123.32 239.25L123.39 239.25Q124.58 239.25 125.61 238.94Q126.65 238.63 127.44 237.99Q128.23 237.35 128.72 236.37Q129.21 235.39 129.30 234.02L129.87 234.02ZM139.15 225.98Q140.75 225.98 142.14 226.50Q143.53 227.03 144.58 227.97Q145.63 228.92 146.24 230.24Q146.85 231.55 146.85 233.15Q146.85 234.75 146.24 236.06Q145.63 237.37 144.58 238.32Q143.53 239.27 142.14 239.79Q140.75 240.32 139.15 240.32Q137.55 240.32 136.14 239.79Q134.74 239.27 133.69 238.32Q132.64 237.37 132.03 236.06Q131.43 234.75 131.43 233.15Q131.43 231.55 132.03 230.24Q132.64 228.92 133.69 227.97Q134.74 227.03 136.14 226.50Q137.55 225.98 139.15 225.98M139.15 239.27Q140.34 239.27 141.36 238.82Q142.39 238.38 143.16 237.58Q143.92 236.78 144.36 235.65Q144.79 234.52 144.79 233.15Q144.79 231.78 144.36 230.65Q143.92 229.52 143.16 228.72Q142.39 227.92 141.36 227.47Q140.34 227.03 139.15 227.03Q137.96 227.03 136.92 227.47Q135.88 227.92 135.12 228.72Q134.35 229.52 133.92 230.65Q133.48 231.78 133.48 233.15Q133.48 234.52 133.92 235.65Q134.35 236.78 135.12 237.58Q135.88 238.38 136.92 238.82Q137.96 239.27 139.15 239.27ZM164.62 226.34L164.62 226.93L164.07 226.93Q163.63 226.93 163.34 227.21Q163.04 227.48 162.99 227.87L162.99 237.33Q162.99 237.85 163.03 238.39Q163.06 238.93 163.11 239.36Q163.15 239.86 163.22 240.34L162.72 240.34L151.41 229.63L151.41 238.45Q151.46 238.86 151.76 239.14Q152.05 239.43 152.46 239.43L153.04 239.43L153.04 240.02L148.47 240.02L148.47 239.43L149.04 239.43Q149.45 239.43 149.76 239.14Q150.07 238.86 150.09 238.45L150.09 228.94Q150.09 228.40 150.04 227.86Q150.00 227.32 149.95 226.91Q149.88 226.43 149.81 225.98L150.36 225.98L161.65 236.60L161.65 227.83Q161.60 227.44 161.30 227.16Q161.01 226.89 160.60 226.89L160.02 226.89L160.02 226.30L164.62 226.34ZM173.89 234.02Q174.44 234.47 174.69 235.18Q174.94 235.89 174.96 236.57Q174.96 237.35 174.63 238.04Q174.30 238.72 173.74 239.23Q173.18 239.75 172.43 240.05Q171.67 240.34 170.83 240.34Q170.33 240.34 169.75 240.27Q169.18 240.21 168.65 240.07Q168.11 239.93 167.63 239.71Q167.15 239.50 166.83 239.20Q166.79 239.02 166.76 238.80Q166.74 238.58 166.74 238.33Q166.74 237.85 166.83 237.26Q166.92 236.67 167.11 236.14L167.72 236.14Q167.70 236.35 167.69 236.48Q167.68 236.62 167.68 236.71Q167.68 237.92 168.45 238.60Q169.23 239.27 170.46 239.27L170.62 239.27Q171.92 239.22 172.67 238.63Q173.41 238.04 173.41 237.01Q173.41 236.55 173.24 236.15Q173.07 235.75 172.66 235.41L172.68 235.41L168.22 231.98Q167.56 231.41 167.33 230.73Q167.11 230.04 167.08 229.42Q167.08 228.72 167.38 228.08Q167.68 227.44 168.20 226.98Q168.73 226.52 169.44 226.25Q170.14 225.98 170.97 225.98Q171.72 225.98 172.26 226.03Q172.79 226.09 173.18 226.18L174.07 226.18L174.14 228.97L173.50 228.97Q173.50 228.05 172.93 227.54Q172.36 227.03 171.15 227.03Q170.62 227.03 170.17 227.17Q169.71 227.32 169.37 227.59Q169.02 227.85 168.83 228.19Q168.64 228.53 168.64 228.94Q168.64 229.33 168.80 229.74Q168.96 230.16 169.44 230.54L173.89 234.02ZM191.04 226.25L191.04 226.87L190.52 226.87Q190.17 226.87 189.92 227.07Q189.67 227.28 189.65 227.60L189.65 235.09Q189.65 236.30 189.25 237.26Q188.85 238.22 188.11 238.89Q187.37 239.57 186.30 239.93Q185.24 240.30 183.92 240.30Q181.24 240.30 179.71 238.93Q178.18 237.56 178.18 235.13L178.18 227.64Q178.14 227.32 177.90 227.09Q177.66 226.87 177.29 226.87L176.79 226.87L176.79 226.25L181.38 226.25L181.38 226.87L180.86 226.87Q180.51 226.87 180.26 227.09Q180.01 227.32 179.99 227.64L179.99 234.84Q179.99 236.92 181.03 238.12Q182.07 239.31 183.89 239.31Q185.93 239.31 187.07 238.20Q188.21 237.08 188.21 235.11L188.21 227.64Q188.19 227.32 187.94 227.11Q187.69 226.89 187.34 226.89L186.82 226.89L186.82 226.30L191.04 226.25ZM203.61 236.53L202.26 240.05L192.92 240.05L192.92 239.45L193.42 239.45Q193.88 239.45 194.17 239.15Q194.47 238.86 194.49 238.42L194.49 227.94Q194.47 227.53 194.14 227.23Q193.81 226.93 193.35 226.93L192.89 226.93L192.89 226.32L197.87 226.32L197.87 226.93L197.42 226.93Q196.96 226.93 196.63 227.23Q196.30 227.53 196.27 227.94L196.27 238.95L199.54 238.95Q200.27 238.93 200.81 238.73Q201.34 238.54 201.74 238.21Q202.14 237.88 202.43 237.43Q202.71 236.98 202.94 236.44L203.61 236.53ZM214.57 226.27Q214.89 226.27 215.28 226.23Q215.67 226.18 216.04 226.11Q216.42 226.04 216.74 225.96Q217.06 225.88 217.24 225.82L217.24 228.81L216.62 228.81L216.62 228.28Q216.62 227.89 216.36 227.62Q216.10 227.35 215.69 227.32L211.87 227.32L211.87 238.40Q211.90 238.81 212.22 239.11Q212.54 239.41 212.99 239.41L213.45 239.41L213.45 240L208.49 240L208.49 239.41L208.95 239.41Q209.41 239.41 209.72 239.11Q210.02 238.81 210.07 238.38L210.07 227.32L206.23 227.32Q205.82 227.35 205.57 227.62Q205.32 227.89 205.32 228.28L205.32 228.81L204.68 228.81L204.68 225.82Q204.86 225.88 205.18 225.96Q205.50 226.04 205.88 226.11Q206.25 226.18 206.64 226.23Q207.03 226.27 207.35 226.27L214.57 226.27ZM218.59 240L218.59 239.41L219.07 239.41Q219.59 239.41 219.97 239.11Q220.35 238.81 220.39 238.40L220.39 227.92Q220.35 227.51 219.97 227.21Q219.59 226.91 219.07 226.91L218.59 226.91L218.59 226.30L224.00 226.30L224.00 226.91L223.52 226.91Q223.02 226.91 222.64 227.21Q222.27 227.51 222.22 227.89L222.22 238.40Q222.24 238.81 222.62 239.11Q223.00 239.41 223.52 239.41L224.00 239.41L224.00 240L218.59 240ZM242.07 226.34L242.07 226.93L241.52 226.93Q241.09 226.93 240.79 227.21Q240.49 227.48 240.45 227.87L240.45 237.33Q240.45 237.85 240.48 238.39Q240.52 238.93 240.56 239.36Q240.61 239.86 240.68 240.34L240.17 240.34L228.87 229.63L228.87 238.45Q228.91 238.86 229.21 239.14Q229.51 239.43 229.92 239.43L230.49 239.43L230.49 240.02L225.92 240.02L225.92 239.43L226.49 239.43Q226.90 239.43 227.21 239.14Q227.52 238.86 227.54 238.45L227.54 228.94Q227.54 228.40 227.50 227.86Q227.45 227.32 227.41 226.91Q227.34 226.43 227.27 225.98L227.82 225.98L239.10 236.60L239.10 227.83Q239.05 227.44 238.76 227.16Q238.46 226.89 238.05 226.89L237.48 226.89L237.48 226.30L242.07 226.34ZM258.06 237.35Q257.65 237.88 257.02 238.40Q256.39 238.93 255.57 239.36Q254.75 239.79 253.73 240.07Q252.71 240.34 251.53 240.34Q249.84 240.34 248.45 239.84Q247.07 239.34 246.09 238.41Q245.11 237.49 244.57 236.16Q244.03 234.84 244.03 233.17Q244.03 231.50 244.57 230.17Q245.11 228.83 246.09 227.91Q247.07 226.98 248.45 226.49Q249.84 226.00 251.53 226.00Q253.10 226.00 254.39 226.34Q255.68 226.68 256.87 227.41L257.42 230.84L256.85 230.84Q256.37 228.88 255.07 227.95Q253.76 227.03 251.48 227.03Q250.25 227.03 249.23 227.45Q248.21 227.87 247.49 228.66Q246.78 229.45 246.39 230.59Q246.00 231.73 246.00 233.15Q246.00 234.56 246.39 235.69Q246.78 236.83 247.49 237.62Q248.21 238.42 249.23 238.85Q250.25 239.27 251.48 239.27Q252.81 239.27 253.98 238.84Q255.16 238.40 256.19 237.44Q256.19 236.71 256.20 236.00Q256.21 235.29 256.23 234.56Q256.23 234.24 255.99 234.07Q255.75 233.90 255.36 233.90L255.04 233.90L255.04 233.40L259.13 233.40L259.13 233.90L258.81 233.90Q258.01 233.90 258.01 234.59L258.06 237.35Z" fill="#ffffff" style="fill: #ffffff"></path></g><g xmlns:name="slogan_text" id="SvgjsG1727" rel="mainfill" name="slogan_text" transform="translate(-0.9600000381469727,-119.72339355210644)" fill="#ffffff" style="fill: #ffffff"><path d="M9.49 226.29C6.57 226.29 4.53 228.20 4.30 232.46L2.20 232.46L2.20 226.50L0.96 226.50L0.96 240L2.20 240L2.20 233.64L4.28 233.64C4.40 238.21 6.48 240.25 9.49 240.25C12.57 240.25 14.69 238.09 14.69 233.27C14.69 228.45 12.57 226.29 9.49 226.29ZM9.49 239.07C7.37 239.07 5.69 237.53 5.69 233.27C5.69 229.01 7.37 227.47 9.49 227.47C11.61 227.47 13.27 229.01 13.27 233.27C13.27 237.53 11.61 239.07 9.49 239.07ZM16.43 244.18L17.60 244.18L17.60 239.56C17.99 239.87 18.70 240.21 19.49 240.21C21.79 240.21 23.52 239.02 23.52 235.14C23.52 232.90 22.75 230.78 20.38 230.78C19.07 230.78 18.09 231.71 17.55 232.36C17.49 231.71 17.37 231.02 17.37 231.02L16.43 231.02ZM22.29 235.14C22.29 238.88 20.86 239.25 19.42 239.25C18.51 239.25 17.93 238.84 17.60 238.55L17.60 233.60C18.41 232.54 19.24 231.77 20.28 231.77C21.81 231.77 22.29 233.46 22.29 235.14ZM30.91 233.06L30.91 240L32.08 240L32.08 231.02L30.91 231.02L26.43 237.94L26.43 231.02L25.26 231.02L25.26 240L26.43 240ZM33.24 242.72L34.01 242.72L34.44 240L40.74 240L41.16 242.72L41.94 242.72L41.94 238.98L40.93 238.98L40.93 231.02L35.21 231.02C35.21 236.49 34.69 238.36 33.82 238.98L33.24 238.98ZM35.23 238.98C36.21 237.49 36.32 234.72 36.32 232.02L39.76 232.02L39.76 238.98ZM48.93 233.06L48.93 240L50.11 240L50.11 231.02L48.93 231.02L44.46 237.94L44.46 231.02L43.29 231.02L43.29 240L44.46 240ZM57.30 235.41C57.30 235.41 56.13 235.80 54.62 235.80C53.33 235.80 53.02 234.74 53.02 233.81L53.02 231.02L51.85 231.02L51.85 233.93C51.85 235.53 52.85 236.78 54.62 236.78C56.13 236.78 57.30 236.39 57.30 236.39L57.30 240L58.48 240L58.48 231.02L57.30 231.02ZM64.26 239.19C62.84 239.19 61.20 238.15 61.20 235.62L67.12 235.53C67.12 233.33 66.48 230.78 63.93 230.78C61.95 230.78 60.02 232.58 60.02 235.60C60.02 238.53 61.70 240.21 64.05 240.21C65.79 240.21 66.96 239.42 66.96 239.42L66.71 238.75C66.71 238.75 65.79 239.19 64.26 239.19ZM63.93 231.75C65.25 231.75 65.90 233.10 65.94 234.54C62.91 234.62 61.60 234.81 61.24 234.87C61.49 232.89 62.72 231.75 63.93 231.75ZM72.34 239.23C70.66 239.23 69.43 237.76 69.43 235.58C69.43 233.37 70.64 231.79 72.32 231.79C73.54 231.79 74.50 232.29 74.50 232.29L74.75 231.57C74.75 231.57 73.71 230.78 72.03 230.78C69.97 230.78 68.27 232.63 68.27 235.58C68.27 238.55 70.01 240.21 72.05 240.21C73.92 240.21 74.94 239.42 74.94 239.42L74.69 238.71C74.69 238.71 73.75 239.23 72.34 239.23ZM81.50 237.22C81.36 236.55 81.15 236.03 80.79 235.66C80.42 235.30 80.00 235.24 80.00 235.24L80.00 235.20C80.00 235.20 80.38 235.14 80.81 234.79C81.15 234.47 81.40 234.04 81.48 233.48C81.71 232.02 82.23 231.88 82.87 231.67L82.71 230.90C81.52 230.90 80.75 231.15 80.25 233.46C80.01 234.56 79.30 234.76 78.47 234.76L77.47 234.76L77.47 231.02L76.29 231.02L76.29 240L77.47 240L77.47 235.74L78.28 235.74C79.30 235.74 79.96 235.78 80.27 237.22C80.81 239.61 81.52 240.10 82.93 240.10L83.14 239.23C82.33 239.00 81.75 238.61 81.50 237.22ZM89.94 233.06L89.94 240L91.12 240L91.12 231.02L89.94 231.02L85.47 237.94L85.47 231.02L84.30 231.02L84.30 240L85.47 240ZM96.90 239.19C95.48 239.19 93.84 238.15 93.84 235.62L99.76 235.53C99.76 233.33 99.12 230.78 96.58 230.78C94.59 230.78 92.66 232.58 92.66 235.60C92.66 238.53 94.34 240.21 96.69 240.21C98.43 240.21 99.60 239.42 99.60 239.42L99.35 238.75C99.35 238.75 98.43 239.19 96.90 239.19ZM96.58 231.75C97.89 231.75 98.54 233.10 98.58 234.54C95.56 234.62 94.24 234.81 93.88 234.87C94.13 232.89 95.36 231.75 96.58 231.75ZM111.81 231.02L109.26 239.27L106.43 231.02L105.16 231.02L108.22 240L109.01 240L108.69 241.14C108.34 242.33 107.86 243.24 106.95 243.24C106.49 243.24 106.04 243.03 105.77 242.87L105.37 243.53C105.77 243.95 106.39 244.24 107.03 244.24C108.47 244.24 109.28 243.20 109.82 241.43L113.02 231.02ZM117.67 239.23C115.99 239.23 114.76 237.76 114.76 235.58C114.76 233.37 115.97 231.79 117.65 231.79C118.87 231.79 119.83 232.29 119.83 232.29L120.08 231.57C120.08 231.57 119.04 230.78 117.36 230.78C115.30 230.78 113.60 232.63 113.60 235.58C113.60 238.55 115.34 240.21 117.38 240.21C119.25 240.21 120.27 239.42 120.27 239.42L120.02 238.71C120.02 238.71 119.08 239.23 117.67 239.23ZM120.89 240.10C123.11 239.81 123.86 238.07 123.86 232.02L127.31 232.02L127.31 240L128.49 240L128.49 231.02L122.68 231.02C122.68 237.38 122.14 238.82 120.66 239.23ZM136.10 231.02L133.56 239.27L130.72 231.02L129.45 231.02L132.52 240L133.31 240L132.98 241.14C132.63 242.33 132.15 243.24 131.24 243.24C130.78 243.24 130.34 243.03 130.07 242.87L129.66 243.53C130.07 243.95 130.68 244.24 131.32 244.24C132.77 244.24 133.58 243.20 134.12 241.43L137.32 231.02ZM138.28 240L139.46 240L139.46 232.02L143.72 232.02L143.72 231.02L138.28 231.02ZM150.72 233.06L150.72 240L151.89 240L151.89 231.02L150.72 231.02L146.24 237.94L146.24 231.02L145.07 231.02L145.07 240L146.24 240ZM155.40 239.31C155.40 238.79 154.98 238.36 154.42 238.36C153.88 238.36 153.44 238.79 153.44 239.31C153.44 239.83 153.88 240.25 154.42 240.25C154.98 240.25 155.40 239.83 155.40 239.31ZM167.05 226.29C163.96 226.29 161.57 228.45 161.57 233.27C161.57 238.09 163.96 240.25 167.05 240.25C170.13 240.25 172.50 238.09 172.50 233.27C172.50 228.45 170.13 226.29 167.05 226.29ZM167.05 239.07C164.93 239.07 162.96 237.53 162.96 233.27C162.96 229.01 164.93 227.47 167.05 227.47C169.17 227.47 171.14 229.01 171.14 233.27C171.14 237.53 169.17 239.07 167.05 239.07ZM177.04 234.37L174.82 231.02L173.49 231.02L176.34 235.35L173.28 240L174.64 240L177.11 236.28L179.58 240L180.95 240L177.88 235.35L180.74 231.02L179.41 231.02L177.19 234.37ZM181.91 244.18L183.09 244.18L183.09 239.56C183.47 239.87 184.19 240.21 184.98 240.21C187.27 240.21 189.01 239.02 189.01 235.14C189.01 232.90 188.24 230.78 185.87 230.78C184.55 230.78 183.57 231.71 183.03 232.36C182.97 231.71 182.86 231.02 182.86 231.02L181.91 231.02ZM187.77 235.14C187.77 238.88 186.35 239.25 184.90 239.25C184.00 239.25 183.42 238.84 183.09 238.55L183.09 233.60C183.90 232.54 184.73 231.77 185.77 231.77C187.29 231.77 187.77 233.46 187.77 235.14ZM194.18 230.90C192.50 230.90 191.01 231.69 191.01 231.69L191.26 232.40C191.26 232.40 192.67 231.88 193.89 231.88C195.56 231.88 196.18 232.48 196.18 234.70L196.18 234.81C191.67 234.87 190.45 236.14 190.45 237.80C190.45 239.21 191.52 240.10 193.13 240.10C194.48 240.10 195.64 239.25 196.24 238.63C196.30 239.31 196.41 240 196.41 240L197.36 240L197.36 234.70C197.36 231.77 196.24 230.90 194.18 230.90ZM193.21 239.11C192.36 239.11 191.63 238.73 191.63 237.72C191.63 236.24 193.35 235.78 196.18 235.76L196.18 237.44C195.31 238.48 194.27 239.11 193.21 239.11ZM204.80 235.89L204.80 240L205.98 240L205.98 231.02L204.80 231.02L204.80 234.83L200.44 234.83L200.44 231.02L199.29 231.02L199.29 240L200.44 240L200.44 235.89ZM211.34 230.90C209.66 230.90 208.17 231.69 208.17 231.69L208.42 232.40C208.42 232.40 209.83 231.88 211.05 231.88C212.72 231.88 213.34 232.48 213.34 234.70L213.34 234.81C208.83 234.87 207.61 236.14 207.61 237.80C207.61 239.21 208.67 240.10 210.29 240.10C211.64 240.10 212.80 239.25 213.40 238.63C213.46 239.31 213.57 240 213.57 240L214.52 240L214.52 234.70C214.52 231.77 213.40 230.90 211.34 230.90ZM210.37 239.11C209.52 239.11 208.79 238.73 208.79 237.72C208.79 236.24 210.51 235.78 213.34 235.76L213.34 237.44C212.47 238.48 211.43 239.11 210.37 239.11ZM220.69 231.02L220.69 232.02L223.56 232.02L223.56 240L224.74 240L224.74 232.02L227.61 232.02L227.61 231.02ZM228.96 244.18L230.13 244.18L230.13 239.56C230.52 239.87 231.23 240.21 232.02 240.21C234.32 240.21 236.05 239.02 236.05 235.14C236.05 232.90 235.28 230.78 232.91 230.78C231.60 230.78 230.62 231.71 230.08 232.36C230.02 231.71 229.90 231.02 229.90 231.02L228.96 231.02ZM234.82 235.14C234.82 238.88 233.39 239.25 231.95 239.25C231.04 239.25 230.46 238.84 230.13 238.55L230.13 233.60C230.94 232.54 231.77 231.77 232.81 231.77C234.34 231.77 234.82 233.46 234.82 235.14ZM243.48 231.02L240.93 239.27L238.10 231.02L236.82 231.02L239.89 240L240.68 240L240.35 241.14C240.01 242.33 239.52 243.24 238.62 243.24C238.15 243.24 237.71 243.03 237.44 242.87L237.04 243.53C237.44 243.95 238.06 244.24 238.69 244.24C240.14 244.24 240.95 243.20 241.49 241.43L244.69 231.02ZM244.88 242.72L245.66 242.72L246.08 240L252.38 240L252.81 242.72L253.58 242.72L253.58 238.98L252.58 238.98L252.58 231.02L246.85 231.02C246.85 236.49 246.33 238.36 245.46 238.98L244.88 238.98ZM246.87 238.98C247.85 237.49 247.97 234.72 247.97 232.02L251.40 232.02L251.40 238.98ZM258.36 230.90C256.68 230.90 255.20 231.69 255.20 231.69L255.45 232.40C255.45 232.40 256.86 231.88 258.07 231.88C259.75 231.88 260.37 232.48 260.37 234.70L260.37 234.81C255.85 234.87 254.64 236.14 254.64 237.80C254.64 239.21 255.70 240.10 257.32 240.10C258.67 240.10 259.83 239.25 260.42 238.63C260.48 239.31 260.60 240 260.60 240L261.54 240L261.54 234.70C261.54 231.77 260.42 230.90 258.36 230.90ZM257.40 239.11C256.55 239.11 255.82 238.73 255.82 237.72C255.82 236.24 257.53 235.78 260.37 235.76L260.37 237.44C259.50 238.48 258.46 239.11 257.40 239.11Z" fill="#ffffff" style="fill: #ffffff"></path></g><g xmlns:name="symbol_mainfill" id="SvgjsG1728" rel="mainfill" name="symbol" transform="translate(95.41958070352587,-1.3482381155945389) scale(0.6974155637334415)" fill="#ffffff" style="fill: #ffffff"><path fill="#ffffff" d="M81.47,85.861c-0.384,0-0.767-0.155-1.046-0.461l-5.024-5.496c-0.254-0.277-0.387-0.645-0.37-1.021  c0.018-0.376,0.184-0.729,0.461-0.983c5.089-4.638,8.889-10.745,10.8-17.323l-4.398-1.101c-2.358,7.998-7.984,15.154-15.269,19.337  l-1.412-2.459c7.041-4.042,12.386-11.117,14.298-18.928c0.09-0.366,0.322-0.682,0.645-0.877c0.324-0.193,0.712-0.252,1.076-0.161  l7.148,1.789c0.759,0.189,1.221,0.958,1.032,1.717c-1.783,7.176-5.66,13.916-10.979,19.126l3.112,3.404  c3.933-3.831,7.2-8.432,9.498-13.381c2.307-4.951,3.709-10.421,4.086-15.904l-14.756-0.555l0.105-2.833l16.193,0.608  c0.782,0.029,1.392,0.686,1.363,1.468c-0.229,6.328-1.759,12.694-4.422,18.41c-2.651,5.711-6.52,10.985-11.187,15.251  C82.154,85.739,81.812,85.861,81.47,85.861z" style="fill: #ffffff"></path><path fill="#ffffff" d="M50.042,98.069c-4.95,0-9.916-0.756-14.566-2.232c-0.746-0.236-1.159-1.032-0.922-1.778l2.248-7.1  c0.113-0.358,0.365-0.657,0.699-0.83c0.333-0.173,0.722-0.208,1.081-0.093c6.535,2.074,13.727,2.306,20.407,0.682l-1.241-4.364  c-3.826,0.912-7.888,1.139-11.835,0.656c-4.39-0.536-8.726-1.987-12.538-4.199l1.423-2.451c3.483,2.021,7.445,3.347,11.458,3.836  c4.049,0.498,8.228,0.176,12.085-0.926c0.361-0.104,0.75-0.059,1.079,0.124c0.328,0.183,0.571,0.488,0.674,0.851l2.017,7.088  c0.214,0.753-0.223,1.536-0.976,1.751c-7.133,2.03-14.908,2.044-22.052,0.059l-1.393,4.4c5.245,1.478,10.862,2.003,16.336,1.518  c5.457-0.476,10.897-1.991,15.823-4.399l-6.9-13.055l2.506-1.324l7.573,14.326c0.365,0.691,0.102,1.548-0.589,1.914  c-5.583,2.958-11.864,4.812-18.165,5.362C52.87,98.008,51.456,98.069,50.042,98.069z" style="fill: #ffffff"></path><path fill="#ffffff" d="M25.139,90.903c-0.258,0-0.52-0.071-0.754-0.219c-5.341-3.366-10.081-7.871-13.706-13.026  C7.031,72.486,4.391,66.493,3.045,60.33c-0.167-0.765,0.317-1.52,1.081-1.688l7.274-1.595c0.368-0.08,0.752-0.012,1.069,0.192  c0.317,0.203,0.54,0.523,0.62,0.892c1.452,6.685,4.846,13.026,9.615,18.004l3.16-3.26c-2.729-2.883-4.961-6.281-6.498-9.905  c-1.741-4.098-2.624-8.462-2.623-12.969h2.835c0,4.124,0.806,8.115,2.398,11.862c1.572,3.71,3.943,7.162,6.856,9.983  c0.271,0.262,0.425,0.62,0.431,0.996s-0.138,0.739-0.399,1.009l-5.129,5.292c-0.544,0.562-1.441,0.575-2.002,0.033  c-5.35-5.169-9.252-11.893-11.087-19.062l-4.506,0.988c1.342,5.31,3.698,10.442,6.857,14.923c3.142,4.468,7.172,8.415,11.714,11.485  l7.877-12.488l2.397,1.512l-8.646,13.706C26.07,90.669,25.61,90.902,25.139,90.903z" style="fill: #ffffff"></path><path fill="#ffffff" d="M19.522,50.25L3.329,49.642c-0.781-0.029-1.392-0.687-1.363-1.468c0.23-6.328,1.759-12.694,4.423-18.411  c2.651-5.712,6.52-10.986,11.186-15.25c0.579-0.528,1.475-0.487,2.002,0.09l5.024,5.496c0.254,0.278,0.387,0.645,0.37,1.021  s-0.183,0.729-0.461,0.983c-5.089,4.638-8.888,10.746-10.8,17.323l4.399,1.101c2.358-7.997,7.984-15.153,15.269-19.336l1.411,2.458  c-7.041,4.043-12.386,11.119-14.298,18.928c-0.089,0.367-0.321,0.682-0.645,0.877s-0.71,0.253-1.076,0.161l-7.148-1.79  c-0.758-0.19-1.22-0.958-1.031-1.717c1.782-7.175,5.659-13.915,10.978-19.125l-3.113-3.405c-3.932,3.831-7.2,8.431-9.497,13.38  C6.651,35.91,5.249,41.38,4.873,46.863l14.756,0.554L19.522,50.25z" style="fill: #ffffff"></path><path fill="#ffffff" d="M34.545,23.723L26.972,9.396c-0.366-0.692-0.102-1.549,0.589-1.915c5.583-2.958,11.864-4.812,18.166-5.362  c6.316-0.559,12.818,0.149,18.798,2.047c0.746,0.237,1.158,1.033,0.923,1.779L63.2,13.043c-0.114,0.358-0.365,0.657-0.699,0.831  s-0.725,0.206-1.081,0.093c-6.537-2.073-13.727-2.306-20.408-0.682l1.241,4.364c3.827-0.912,7.889-1.139,11.836-0.655  c4.391,0.536,8.727,1.987,12.536,4.198l-1.422,2.452c-3.481-2.02-7.444-3.347-11.459-3.836c-4.05-0.494-8.229-0.175-12.086,0.927  c-0.363,0.104-0.75,0.058-1.079-0.124c-0.329-0.183-0.571-0.489-0.674-0.851l-2.016-7.088c-0.214-0.753,0.223-1.537,0.975-1.751  c7.132-2.029,14.908-2.044,22.052-0.06l1.393-4.399c-5.246-1.478-10.862-2.002-16.336-1.519C40.517,5.419,35.077,6.935,30.15,9.343  l6.9,13.054L34.545,23.723z" style="fill: #ffffff"></path><path fill="#ffffff" d="M83.257,50h-2.834c0-4.126-0.807-8.117-2.398-11.862c-1.571-3.709-3.942-7.162-6.856-9.984  c-0.27-0.262-0.425-0.62-0.431-0.996s0.138-0.739,0.399-1.009l5.129-5.292c0.543-0.561,1.441-0.576,2.002-0.033  c5.35,5.167,9.252,11.892,11.088,19.062l4.506-0.988c-1.342-5.309-3.696-10.442-6.856-14.923  c-3.144-4.469-7.173-8.417-11.714-11.485l-7.877,12.489l-2.398-1.513l8.646-13.706c0.418-0.663,1.292-0.859,1.955-0.443  c5.339,3.365,10.079,7.869,13.706,13.026c3.648,5.173,6.288,11.167,7.633,17.33c0.167,0.764-0.317,1.519-1.081,1.687l-7.273,1.594  c-0.367,0.08-0.752,0.012-1.069-0.191c-0.316-0.204-0.54-0.524-0.619-0.892c-1.452-6.686-4.847-13.026-9.615-18.004l-3.159,3.26  c2.729,2.883,4.962,6.282,6.496,9.905C82.374,41.127,83.257,45.491,83.257,50z" style="fill: #ffffff"></path></g> </g></svg>
